<!DOCTYPE svg PUBLIC "-//W3C//DTD SVG 1.1//EN" "http://www.w3.org/Graphics/SVG/1.1/DTD/svg11.dtd">
<!-- Uploaded to: SVG Repo, www.svgrepo.com, Transformed by: SVG Repo Mixer Tools -->
<svg width="800px" height="800px" viewBox="-55.09 0 320.122 320.122" xmlns="http://www.w3.org/2000/svg" fill="#000000">
<g id="SVGRepo_bgCarrier" stroke-width="0"/>
<g id="SVGRepo_tracerCarrier" stroke-linecap="round" stroke-linejoin="round"/>
<g id="SVGRepo_iconCarrier">
<defs>
<style>.a{fill:#a98a75;}.b{fill:#ffffff;}.c{fill:#211715;}.d{fill:#f8b8b4;}.e{fill:#febe69;}</style>
</defs>
<path class="a" d="M56.609,162.119c-14.465,2.4-23.693-9.08-23.625-17.348a96.737,96.737,0,0,1,2.947-20.622c2.293-8.188,3.929-22.587,3.929-42.555-.977-29.461,6.772-50.826,18.99-62.523C66.214,12.02,82.81,2.414,101.457,2.414A67.7,67.7,0,0,1,128.524,7.6l8.3,4.113c3.6,2.105,4.878,3.909,8.579,7.455,9.293,8.9,15.751,24.924,16.78,39.27.3,4.138.878,14.022.605,22.359a155.264,155.264,0,0,0,5.948,42.4c2.383,8.048,5.581,18.4,3.008,26.4-3.14,9.751-14.4,15.753-24.184,12.269Z"/>
<path class="b" d="M60.419,73.622C69.256,66.378,78.768,57.354,87.474,48.8c-.37,3.131-1.667,8.484-1.878,11.723-.084,1.3.193,1.752,1.182,2.221a4.538,4.538,0,0,0,2.636-.122,63.135,63.135,0,0,0,31.472-22.917c1.723,6.621,4.167,14.862,6.3,18.879,5.262,9.934,14.192,18.3,22.131,20.724a7.377,7.377,0,0,1,5.338-1.931,6.843,6.843,0,0,1,6.134,3.44c2.075,3.63,1.961,10.305.543,14.429-1,2.921-2.649,7.39-6.582,10.583a8.126,8.126,0,0,1-6.275,1.784l-.6-.1a47.925,47.925,0,0,1-2.179,5.844c-1.586,4.254-10.209,19-21.136,25.053.038,2.278-.031,3.1.178,5.972a13.949,13.949,0,0,0,.672,3.941,9.628,9.628,0,0,0,2.889,4.2c2.935,2.365,5.952,3.5,9.668,4.893l3.876,1.525c-9.807,6.687-25.993,10.447-39.723,10.756-13.536-.308-29.526-3.968-39.348-10.5l4.534-1.784c3.716-1.4,6.733-2.528,9.669-4.893a9.628,9.628,0,0,0,2.889-4.2,13.983,13.983,0,0,0,.671-3.941c.2-2.66.149-3.563.171-5.5-5.105-2.457-9.683-6.37-14.036-11.621A56.1,56.1,0,0,1,56.1,107.145a7.969,7.969,0,0,1-6.775-1.724c-3.908-3.223-5.518-7.7-6.5-10.633-1.386-4.135-1.449-10.811.654-14.425a6.843,6.843,0,0,1,6.161-3.391A7.512,7.512,0,0,1,54.326,78.4C56.307,76.924,58.344,75.322,60.419,73.622Z"/>
<path class="c" d="M146.458,103.415a45.268,45.268,0,0,1-1.719,5.916c-.527,1.477-.957,2.4-1.519,3.783-.112.276.214-.481.082-.2-.041.09-.078.181-.12.271-.093.2-.181.392-.274.586q-.346.72-.723,1.425c-.581,1.094-1.2,2.167-1.85,3.224a58.875,58.875,0,0,1-12.711,15.025,23.419,23.419,0,0,1-9.487,4.893c-3.011.683-1.737,5.312,1.276,4.629,7.178-1.629,13.167-6.855,17.867-12.281a63.692,63.692,0,0,0,10.046-15.078q.232-.516.446-1.038c.064-.154.357-.817.078-.19.41-.92.8-1.848,1.155-2.79a46.566,46.566,0,0,0,2.082-6.9c.631-3.014-3.995-4.3-4.629-1.276Z"/>
<path class="c" d="M52.863,104.159a59.1,59.1,0,0,0,8.328,19.734c4.246,6.405,9.828,12.413,16.6,16.183a33.014,33.014,0,0,0,11.1,3.819,2.477,2.477,0,0,0,2.952-1.676,2.417,2.417,0,0,0-1.676-2.952c-13.891-2.108-24.242-14.138-29.531-26.486a56.007,56.007,0,0,1-3.143-9.9c-.671-3.014-5.3-1.739-4.629,1.276Z"/>
<path class="c" d="M93.19,118.814a19.21,19.21,0,0,0,9.248,2.173,15.047,15.047,0,0,0,9.347-2.724,2.413,2.413,0,0,0,0-3.394,2.462,2.462,0,0,0-3.394,0c.73-.565.16-.133-.027-.015s-.378.228-.574.33c-.1.052-.205.1-.307.151-.388.2.094-.022.094-.033a3.926,3.926,0,0,1-.79.284,13.4,13.4,0,0,1-2.212.5c.354-.049-.07,0-.212.015q-.326.032-.651.051c-.523.032-1.047.043-1.571.038-.47-.005-.938-.022-1.406-.056-.215-.016-.43-.036-.644-.056-.787-.072.424.087-.312-.038a16.539,16.539,0,0,1-2.063-.466c-.289-.088-.57-.192-.855-.291-.613-.214.351.182-.2-.082-.353-.169-.7-.344-1.047-.528a2.4,2.4,0,1,0-2.423,4.145Z"/>
<path class="c" d="M101.307,97.043a43.527,43.527,0,0,1,1,4.682l-.086-.638a2.784,2.784,0,0,1,.015.645l.086-.638a1.577,1.577,0,0,1-.072.29l.242-.573a1.16,1.16,0,0,1-.1.186l.375-.485a.987.987,0,0,1-.153.15l.485-.376a2.848,2.848,0,0,1-.371.195l.573-.242a2.711,2.711,0,0,1-.625.18l.638-.086a2.5,2.5,0,0,1-.586,0l.638.086c-.221-.032-.438-.087-.658-.117a2.646,2.646,0,0,0-1.85.242,2.4,2.4,0,0,0-.861,3.283,2.3,2.3,0,0,0,1.434,1.1c.5.07.991.2,1.5.222a4.8,4.8,0,0,0,2.217-.523,3.2,3.2,0,0,0,1.775-2.106,5.288,5.288,0,0,0-.019-2.271c-.248-1.508-.591-3-.973-4.482a2.4,2.4,0,0,0-4.628,1.276Z"/>
<path class="c" d="M76.624,83.69c-.791,2.536-.3,8.377,4.5,8.893,6.356-.013,6.722-7.072,4.595-10.4C83.981,79.458,78.834,78.308,76.624,83.69Z"/>
<path class="c" d="M127.525,83.888c.771,2.542.24,8.38-4.571,8.858-6.357-.063-6.668-7.125-4.515-10.436C120.2,79.6,125.357,78.489,127.525,83.888Z"/>
<path class="c" d="M151.009,81.008a5.344,5.344,0,0,1,7.464.6c-.331-.422.059.115.113.211.14.248.29.489.408.75a10.811,10.811,0,0,1,.672,2.266,19.494,19.494,0,0,1,.241,5.273,22.659,22.659,0,0,1-2.677,8.805c-1.495,2.837-4.39,6.913-8.122,6.388a2.481,2.481,0,0,0-2.952,1.676,2.417,2.417,0,0,0,1.676,2.953c8.609,1.209,13.653-7.253,15.908-14.342a24.7,24.7,0,0,0,.682-11.327,11.1,11.1,0,0,0-4.43-7.71,10.346,10.346,0,0,0-12.377,1.062c-2.3,2.068,1.1,5.453,3.394,3.394Z"/>
<path class="c" d="M56.663,77.247a10.412,10.412,0,0,0-11.372-1.684A9.918,9.918,0,0,0,40.15,82.25c-1.859,6.805-.138,14.689,3.69,20.531,2.579,3.935,6.713,7.541,11.747,6.874a2.48,2.48,0,0,0,2.4-2.4c0-1.165-1.106-2.572-2.4-2.4-4.036.535-6.805-2.849-8.536-6.072A22.728,22.728,0,0,1,44.3,89.827a19.613,19.613,0,0,1,.274-5.457,11.849,11.849,0,0,1,.562-1.976,6.556,6.556,0,0,1,.5-.958c.056-.092.509-.706.164-.279a5.361,5.361,0,0,1,7.468-.516c2.279,2.078,5.683-1.307,3.395-3.394Z"/>
<path class="c" d="M118.718,40.919c1.725,6.529,3.427,13.464,6.687,19.43a51.653,51.653,0,0,0,14,16.348,30.669,30.669,0,0,0,9.268,4.928c2.954.928,4.218-3.7,1.276-4.628-7.244-2.273-13.31-8.378-17.545-14.462-4.78-6.869-6.944-14.889-9.058-22.892-.789-2.984-5.42-1.718-4.629,1.276Z"/>
<path class="c" d="M118.77,38.555A62.266,62.266,0,0,1,103.519,53.14a61.835,61.835,0,0,1-9.389,5.151c-1.622.714-3.289,1.345-4.974,1.9a5.72,5.72,0,0,1-1.1.3,2.018,2.018,0,0,0-.356,0c-.472.18.012-.2.041.082.019.186.168.757.246.48a8.564,8.564,0,0,0,.073-1.275c.369-3.687,1.357-7.3,1.814-10.974.27-2.167-2.744-3.026-4.1-1.7C77,55.723,68.086,64.247,58.569,72.051a2.417,2.417,0,0,0,0,3.394,2.455,2.455,0,0,0,3.394,0c9.518-7.8,18.431-16.327,27.208-24.945l-4.1-1.7c-.425,3.418-1.449,7.326-1.814,10.974-.206,2.066.232,3.916,2.169,4.972,2.07,1.128,4.47.28,6.511-.456A65.561,65.561,0,0,0,113.32,51.58a70.455,70.455,0,0,0,9.6-10.6,2.416,2.416,0,0,0-.861-3.284,2.457,2.457,0,0,0-3.284.861Z"/>
<path class="c" d="M160.387,80.8a162.009,162.009,0,0,0,6.252,43.774c1.792,6.049,3.726,12.284,3.654,18.656a17.009,17.009,0,0,1-6.5,13.6,16.636,16.636,0,0,1-15.592,2.721c-2.927-1.009-4.184,3.626-1.276,4.628,11.359,3.918,24.531-3.46,27.452-15.049,1.72-6.828.159-14.136-1.65-20.777-1.942-7.131-4.047-14.133-5.3-21.435A168.994,168.994,0,0,1,165.187,80.8c-.045-3.086-4.845-3.1-4.8,0Z"/>
<path class="c" d="M135.611,13.785a26.018,26.018,0,0,1,5.109,4.123c1.733,1.731,3.546,3.4,5.169,5.236a51.526,51.526,0,0,1,7.793,12.271A68.31,68.31,0,0,1,158.527,49.9a81.339,81.339,0,0,1,1.531,12.931c.329,5.978.514,11.975.329,17.961-.1,3.09,4.7,3.086,4.8,0,.173-5.584.019-11.176-.265-16.754A97.972,97.972,0,0,0,163.44,50c-2.043-10.371-6.311-20.63-12.994-28.878a85.118,85.118,0,0,0-6.075-6.353,32.392,32.392,0,0,0-6.337-5.132c-2.661-1.583-5.078,2.565-2.423,4.145Z"/>
<path class="c" d="M129.162,5.285A72.071,72.071,0,0,0,99.028.069,68.577,68.577,0,0,0,68.734,9.021a53.425,53.425,0,0,0-17.34,15.024A68.374,68.374,0,0,0,41.1,46.382c-3.123,11.423-4.016,23.41-3.642,35.212.1,3.081,4.9,3.095,4.8,0-.566-17.856,1.625-37.151,11.488-52.511A46.326,46.326,0,0,1,68.467,14.758a64.738,64.738,0,0,1,26.86-9.6,67.52,67.52,0,0,1,32.559,4.76,2.416,2.416,0,0,0,2.952-1.676,2.458,2.458,0,0,0-1.676-2.952Z"/>
<path class="c" d="M37.46,81.594c-.005,8.275-.255,16.562-1.02,24.805a101.472,101.472,0,0,1-2.57,16.172A99.658,99.658,0,0,0,30.627,143.2a19.833,19.833,0,0,0,5.856,14.839c5.457,5.61,13.158,7.6,20.764,6.4a2.417,2.417,0,0,0,1.676-2.952,2.459,2.459,0,0,0-2.952-1.677,18.349,18.349,0,0,1-15.682-4.753,17.926,17.926,0,0,1-3.92-5.637,15.282,15.282,0,0,1-.906-3.215c-.066-.393-.016.119-.041-.407-.013-.266-.034-.53-.038-.8-.01-.711.024-1.425.059-2.134a95.638,95.638,0,0,1,3.083-19.122A106.978,106.978,0,0,0,41.1,107.816c.878-8.709,1.152-17.473,1.157-26.222,0-3.089-4.8-3.094-4.8,0Z"/>
<path class="c" d="M78.3,139.689c-.007,1.221-.024,2.44-.1,3.659a14.072,14.072,0,0,1-.648,4.338c-1.075,2.712-3.509,4.2-6.055,5.445-3.181,1.552-6.627,2.682-9.923,3.979a2.473,2.473,0,0,0-1.676,2.952,2.417,2.417,0,0,0,2.952,1.677c3.959-1.559,8.139-2.887,11.895-4.883a20.429,20.429,0,0,0,4.391-3.038,12.5,12.5,0,0,0,2.923-4.567c1.163-2.92,1.021-6.455,1.038-9.562.016-3.09-4.784-3.093-4.8,0Z"/>
<path class="c" d="M122.167,139.689c.016,3.107-.126,6.642,1.038,9.562a12.482,12.482,0,0,0,2.923,4.567,20.429,20.429,0,0,0,4.391,3.038c3.755,2,7.936,3.324,11.895,4.883a2.417,2.417,0,0,0,2.952-1.677,2.456,2.456,0,0,0-1.676-2.952c-3.3-1.3-6.742-2.427-9.923-3.979-2.538-1.239-4.993-2.734-6.055-5.445a14.229,14.229,0,0,1-.649-4.338c-.072-1.219-.089-2.438-.1-3.659-.016-3.088-4.816-3.095-4.8,0Z"/>
<path class="d" d="M42.585,166.8c6.214-3.211,13.86-6.486,18.927-8.488,9.655,7.091,26.467,11.068,40.6,11.39,13.713-.309,29.876-4.059,39.682-10.733l.6.234a173.819,173.819,0,0,1,27.77,12.619,58.68,58.68,0,0,1,18.423,16.805,92.164,92.164,0,0,1,10.1,19.8c3.918,11.637,6.56,41.4,7.879,57.733.539,6.678.951,13.356.951,20.056,0,8.745-2.163,20.608-13.416,26.285-5.646,2.849-13.973,2.155-19.868.516a49.477,49.477,0,0,1-9.648-3.9c0,2.456-.017,4.915-.079,7.266a1.139,1.139,0,0,1-1.357,1.239c-10.166,0-117.337.126-122.167.1a1.234,1.234,0,0,1-1.121-.553,5.737,5.737,0,0,1-.167-1.5,29.574,29.574,0,0,1-12.572,1.162C10.294,314.8,5.624,299.743,4.605,295.8c-2.7-10.444-2.709-23.957-1.144-40.259a251.278,251.278,0,0,1,8.333-46.089c4.169-15.567,10.862-30.065,24.408-39A72.164,72.164,0,0,1,42.585,166.8Z"/>
<path class="c" d="M61.435,161.2c9.221,6.124,20.631,8.877,31.482,10.222a72.392,72.392,0,0,0,16.78.187,96.523,96.523,0,0,0,17.169-3.347,58.431,58.431,0,0,0,16.23-7.276c2.542-1.724.143-5.885-2.423-4.145-8.53,5.784-19.231,8.531-29.348,9.78a71.926,71.926,0,0,1-15.971.272,90.253,90.253,0,0,1-15.92-3.025,55.346,55.346,0,0,1-15.576-6.813c-2.581-1.714-4.987,2.442-2.423,4.145Z"/>
<path class="c" d="M162.193,306.847c0,2.634,0,5.268-.046,7.9a5.324,5.324,0,0,0-.035,1.631c.654,1.224.441-1.388,1.043-1.161-.028-.011-.067.007-.1,0a2.262,2.262,0,0,0-.507,0h-2.67l-9.085.008-28.724.028-34.3.034q-15.115.015-30.229.026c-5.35,0-10.7.017-16.05,0a1.864,1.864,0,0,0-.308,0c-.392.069-.045-.349.383.149l.617,1.059c-.178-.448,0,.452-.065-.285-.016-.192-.01-.387-.013-.579-.045-3.086-4.845-3.095-4.8,0a7.362,7.362,0,0,0,.249,2.14,3.6,3.6,0,0,0,3.436,2.315c.2.009.4,0,.593,0q1.189,0,2.381,0l8.929,0q14.735-.009,29.468-.024l35.728-.035q15.421-.015,30.845-.03,5.069-.006,10.138-.009l3.081,0c.333,0,.672.019,1,0a3.951,3.951,0,0,0,2.983-1.333,5.93,5.93,0,0,0,.805-3.7c.051-2.712.05-5.424.05-8.136,0-3.089-4.8-3.094-4.8,0Z"/>
<path class="c" d="M139.3,160.559c13.757,5.362,28.577,10.5,39.636,20.695a61.454,61.454,0,0,1,12.441,16.663,67.1,67.1,0,0,1,6.638,17.322c2.846,13.06,4.01,26.532,5.21,39.824.671,7.433,1.34,14.878,1.681,22.336.314,6.866.675,13.747-1.4,20.278-1.829,5.764-6,11.23-11.882,13.28-6.71,2.34-14.434.809-20.889-1.644a37.149,37.149,0,0,1-4.937-2.271c-2.7-1.509-5.122,2.635-2.422,4.145a43.282,43.282,0,0,0,22.476,5.621,22.973,22.973,0,0,0,11.408-3.337,24.973,24.973,0,0,0,7.746-7.692c3.445-5.379,4.728-11.913,4.893-18.219.226-8.626-.58-17.291-1.3-25.877-1.2-14.3-2.475-28.671-4.994-42.806a72.374,72.374,0,0,0-5.116-17.353,77.481,77.481,0,0,0-11.84-19.215c-11.245-12.926-27.983-19.582-43.644-25.431-.814-.3-1.621-.632-2.431-.947a2.417,2.417,0,0,0-2.952,1.676,2.455,2.455,0,0,0,1.676,2.952Z"/>
<rect class="b" x="76.566" y="167.487" width="114.814" height="92.464" transform="translate(-105.809 292.009) rotate(-76)"/>
<path class="e" d="M102.006,150.828,75.226,258.236l10.229,2.55c7.845-31.467,23.788-95.413,27.775-111.4L103,146.833Z"/>
<path class="c" d="M87.968,260.623q5.824-23.358,11.648-46.718,5.9-23.679,11.807-47.358,2.061-8.263,4.121-16.526c.747-3-3.881-4.277-4.629-1.276q-4.41,17.691-8.821,35.382-6.3,25.251-12.592,50.5-3.081,12.36-6.163,24.719c-.747,3,3.881,4.277,4.629,1.276Z"/>
<path class="c" d="M100.446,147.165l-2.322,9.312-5.675,22.761-7.188,28.831-6.767,27.14-4.5,18.059c-.272,1.093-.593,2.185-.819,3.289a3.51,3.51,0,0,0,2.458,4.253c.409.128.839.209,1.255.313L94.032,265.4l27.96,6.971,26.847,6.694c4.723,1.178,9.433,2.467,14.182,3.536a3.712,3.712,0,0,0,4.645-2.994l1.195-4.79,5.018-20.126,7-28.056,7.039-28.231,5.238-21.01,1.366-5.481c.086-.342.186-.684.257-1.03a3.513,3.513,0,0,0-2.466-4.255c-4.139-1.294-8.489-2.117-12.694-3.165l-26.4-6.581-28.185-7.027-18.448-4.6c-2.09-.521-4.758-1.327-5.9,1.339a2.481,2.481,0,0,0,.861,3.283,2.417,2.417,0,0,0,3.284-.861c-.16.372-2,.069-1.3.424a2.918,2.918,0,0,0,.577.144l2.156.538,7.869,1.961,25.007,6.235,28.128,7.014,20.163,5.027,2.481.618a3.641,3.641,0,0,0,1.148.287c-.686.165-.541-2.547-.99-1.358a14.1,14.1,0,0,0-.383,1.538l-3.914,15.7-6.4,25.68-7.113,28.528-6.044,24.241-3.2,12.821a1.76,1.76,0,0,0-.109.437c.064.833,1.318-1.224,1.7-.8-.115-.127-.664-.165-.823-.2l-5.744-1.432L135.5,270.789l-28.39-7.078-23.08-5.755-6.084-1.517a5.2,5.2,0,0,0-1.075-.267c1.644.011.611,2.627,1.021,1.312,1.245-3.995,2.042-8.191,3.054-12.25L86.91,221.3,94.015,192.8l6.462-25.918,4.04-16.206.558-2.235C105.822,145.443,101.194,144.165,100.446,147.165Z"/>
<path class="c" d="M159.216,231.918,112.627,220.3c-3-.747-4.276,3.881-1.276,4.629l46.589,11.616c3,.747,4.277-3.881,1.276-4.629Z"/>
<path class="e" d="M163.268,213.7,116.861,202.13l7.232-29L170.5,184.7Z"/>
<path class="c" d="M163.906,211.386,117.5,199.816l1.677,2.952,6.319-25.344.912-3.66-2.952,1.676,46.407,11.571-1.677-2.953L161.866,209.4l-.912,3.66c-.748,3,3.88,4.277,4.628,1.277L171.9,189l.913-3.661a2.437,2.437,0,0,0-1.676-2.952l-46.407-11.57a2.435,2.435,0,0,0-2.952,1.676l-6.319,25.344-.913,3.66a2.436,2.436,0,0,0,1.676,2.952l46.407,11.571C165.628,216.762,166.907,212.134,163.906,211.386Z"/>
<path class="c" d="M61.045,155.931A201.043,201.043,0,0,0,40,165.449a53.439,53.439,0,0,0-17.673,14.906,73.679,73.679,0,0,0-10.739,21.4,214.28,214.28,0,0,0-6.227,24.116c-1.747,8.408-2.965,16.912-3.875,25.449A200.226,200.226,0,0,0,.079,279.467c.383,10.988,2.042,22.669,9.7,31.13a27.6,27.6,0,0,0,17.964,8.695c8.6.863,16.78-2.179,23.885-6.822,1.881-1.23,3.693-2.558,5.471-3.931a2.48,2.48,0,0,0,.861-3.283,2.415,2.415,0,0,0-3.284-.861c-6.227,4.81-13.3,9.437-21.352,10.141-6.492.567-13.325-1.1-18.155-5.361a23.274,23.274,0,0,1-4.724-5.649,31.748,31.748,0,0,1-1.576-2.909q-.153-.321-.3-.647c-.063-.141-.36-.839-.145-.319q-.258-.624-.493-1.258a54.706,54.706,0,0,1-2.851-15.052,161.7,161.7,0,0,1,.62-26.1c.763-8.456,1.791-16.893,3.335-25.244,1.444-7.815,3.3-15.568,5.43-23.223a83.567,83.567,0,0,1,8.658-21.063,47.246,47.246,0,0,1,15.146-15.738,135.491,135.491,0,0,1,19.63-9.617q2.2-.923,4.419-1.8A2.472,2.472,0,0,0,64,157.607a2.415,2.415,0,0,0-2.952-1.676Z"/>
<path class="c" d="M31.2,273.873c5.469-4.052,11.2-7.745,16.666-11.793a2.473,2.473,0,0,0,.861-3.284,2.417,2.417,0,0,0-3.283-.861c-5.472,4.049-11.2,7.741-16.667,11.793a2.474,2.474,0,0,0-.861,3.284,2.418,2.418,0,0,0,3.284.861Z"/>
<path class="c" d="M35.994,210.987a294.726,294.726,0,0,0,8.33,32.381c.971,2.916,5.608,1.666,4.628-1.276a294.681,294.681,0,0,1-8.329-32.382c-.637-3.02-5.265-1.742-4.629,1.277Z"/>
<path class="b" d="M165.864,241.6a18.2,18.2,0,0,0-8.222-.51c-2.477.593-4.31,3.1-3.4,5.481a7.207,7.207,0,0,0,3.161,3.176,94.314,94.314,0,0,0,17.207,8.629q-10.452-1.41-20.906-2.813a15.888,15.888,0,0,0-4.436-.177,5.351,5.351,0,0,0-3.745,2.159,5.646,5.646,0,0,0,.32,5.855,6.5,6.5,0,0,0,2.667,2.092l-1.688.247a4.819,4.819,0,0,0-3.985,4.912,6,6,0,0,0,3.391,5.235,20.258,20.258,0,0,0,4.906,1.7c-.746.837-1.22,1.372-1.22,1.372a4.983,4.983,0,0,0-.265,5.674c2.5,4.276,9.946,5.313,15.31,6.082a23.52,23.52,0,0,0,10.777-.906c5.467-1.837,8.9-4.077,11.984-9.9,2.09-3.95,2.682-8.4,2.753-13.1a30.011,30.011,0,0,0-1.759-10.118,13.081,13.081,0,0,0-4.428-5.848c-1.442-1.078-3.141-2.248-4.991-3.4A49.083,49.083,0,0,0,165.864,241.6Z"/>
<path class="c" d="M172.545,254.991a95.833,95.833,0,0,1-13.346-6.945c-1.054-.661-3.42-1.838-2.649-3.386.584-1.174,2.081-1.383,3-1.43,3.69-.187,7.429,1.017,10.819,2.353a54.343,54.343,0,0,1,11.576,6.5A12.6,12.6,0,0,1,186,256.468a20.278,20.278,0,0,1,1.776,6.2,29.728,29.728,0,0,1-.781,12.635,18.269,18.269,0,0,1-5.949,9.263,20.9,20.9,0,0,1-10.191,3.889,36.384,36.384,0,0,1-13.324-1.576,12.492,12.492,0,0,1-4.814-2.28c-.9-.791-2.132-2.658-1.1-3.936a2.472,2.472,0,0,0,0-3.394,2.418,2.418,0,0,0-3.394,0c-3.534,4.4-1.02,9.913,3.45,12.406,3.836,2.141,8.367,2.765,12.654,3.361a27.942,27.942,0,0,0,15.939-2.445,20.618,20.618,0,0,0,9.339-9.109,30.923,30.923,0,0,0,3.252-16c-.235-5.323-1.513-11.163-5.388-15.057a37.1,37.1,0,0,0-6.563-4.817,52.067,52.067,0,0,0-6.811-3.634c-4.379-1.931-9.24-3.651-14.094-3.56-2.571.048-5.132.716-6.829,2.78a6.272,6.272,0,0,0,.037,8.2c1.937,2.32,5.168,3.825,7.765,5.272a96.331,96.331,0,0,0,9.158,4.469,2.481,2.481,0,0,0,3.283-.861,2.417,2.417,0,0,0-.861-3.284Z"/>
<path class="c" d="M172.873,255.74q-9.426-1.267-18.853-2.534c-2.849-.382-5.852-.615-8.4.992a6.874,6.874,0,0,0-3.124,6.641c.479,4.652,4.311,7,8.488,8.106,2.965.786,5.975,1.422,8.969,2.087q4.581,1.019,9.171,2c3.012.647,4.3-3.98,1.276-4.629-5.155-1.107-10.311-2.218-15.443-3.427-2.126-.5-4.837-.907-6.57-2.326-1.011-.828-1.634-2.743-.791-3.9,1.17-1.6,4.042-1.06,5.666-.852,6.117.785,12.226,1.643,18.338,2.464a2.484,2.484,0,0,0,2.952-1.676,2.416,2.416,0,0,0-1.676-2.952Z"/>
<path class="c" d="M146.181,263.425a7.265,7.265,0,0,0-5.747,7.057,8.625,8.625,0,0,0,5.04,7.711c4.405,2.146,9.65,2.619,14.43,3.506,2.039.378,4.077.768,6.121,1.125a2.469,2.469,0,0,0,2.952-1.676A2.42,2.42,0,0,0,167.3,278.2c-4.17-.728-8.325-1.539-12.487-2.305-2.66-.489-6.142-.856-8.285-2.666-1.86-1.57-1.744-4.67.928-5.171a2.423,2.423,0,0,0,1.677-2.952,2.452,2.452,0,0,0-2.953-1.676Z"/>
<path class="b" d="M66.43,231.717a20.1,20.1,0,0,1,5.4-4.761A41.279,41.279,0,0,1,88.918,222.6a10.774,10.774,0,0,1,6.134,1.356,4.088,4.088,0,0,1,1.867,4.615,3.75,3.75,0,0,1-2.618,2.61,41.969,41.969,0,0,0-4.067,1.3,48.742,48.742,0,0,0-9.47,4.252l-.612,3.892a126.889,126.889,0,0,1,12.889,2.811,29.454,29.454,0,0,1,6.751,2.633,7.39,7.39,0,0,1,3.544,3.118,5.518,5.518,0,0,1,.638,3.316,3.7,3.7,0,0,1-2.3,3.059,6.749,6.749,0,0,1-4.411.458c-1.235-.28-2.478-.584-3.732-.894,3.593,1.787,3.831,3.15,4.474,5.193a4.556,4.556,0,0,1-.462,3.45,5.407,5.407,0,0,1-5.189,1.647c-1.5-.383-2.905-.722-4.32-1.031l1.662,1.189c2.993,2.14,2.225,7.109-.342,7.935-2.087.67-5.512.081-9.165-.2-.385,5.079-5.406,10.062-7.169,11.061a17.25,17.25,0,0,1-7.187,2.111c-5.55-.1-10.158-3.921-13.233-8.532A11.725,11.725,0,0,1,52.22,267.1a65.974,65.974,0,0,0,5.706-14.586c1.467-5.843,4.963-16.5,8.5-20.8"/>
<path class="c" d="M73.042,229.028a42.594,42.594,0,0,1,11.825-3.722,26.582,26.582,0,0,1,5.658-.263c1.321.086,3.243.384,3.946,1.676a1.471,1.471,0,0,1-.808,2.151c-1.7.622-3.472,1.078-5.178,1.708a60.948,60.948,0,0,0-8.933,4.084c-2.69,1.518-.274,5.666,2.423,4.144a53.065,53.065,0,0,1,7.963-3.665c1.594-.588,3.189-1.139,4.825-1.6a6.238,6.238,0,0,0,4.115-3.423c1.654-3.643-.448-7.428-3.94-8.922s-7.679-1.09-11.347-.521a47.4,47.4,0,0,0-12.972,4.206,2.42,2.42,0,0,0-.861,3.283,2.452,2.452,0,0,0,3.284.861Z"/>
<path class="c" d="M64.733,230.02c-3.582,4.443-5.554,10.2-7.3,15.567-.866,2.667-1.534,5.381-2.314,8.072A62.361,62.361,0,0,1,51,264.251c-1.474,2.944-2.568,5.7-2.271,9.076a15,15,0,0,0,4.007,8.738c4.2,4.907,10.56,8.078,17.03,6.207a15.993,15.993,0,0,0,6.884-3.751,20.391,20.391,0,0,0,5.559-8.837c.854-2.975-3.777-4.245-4.629-1.276a15.214,15.214,0,0,1-3.9,6.293,9.112,9.112,0,0,1-4.132,2.6,9.977,9.977,0,0,1-7.392.014,15.9,15.9,0,0,1-5.9-4.5,9.665,9.665,0,0,1-2.77-6.225c-.09-2.92,1.269-5.015,2.463-7.579a70.235,70.235,0,0,0,3.677-9.632c.724-2.436,1.31-4.907,2.068-7.334.846-2.71,1.778-5.4,2.881-8.02.534-1.267,1.119-2.517,1.767-3.729.29-.544.594-1.08.92-1.6.3-.486.68-1.043.869-1.278a2.472,2.472,0,0,0,0-3.394,2.418,2.418,0,0,0-3.394,0Z"/>
<path class="c" d="M79.514,242.94a122.739,122.739,0,0,1,12.307,2.652,31.64,31.64,0,0,1,5.121,1.729c1.323.616,3.07,1.278,3.974,2.474.732.966,1.078,2.666.135,3.389-1.5,1.153-3.616.422-5.241.03-4.467-1.079-8.907-2.269-13.45-2.994a2.473,2.473,0,0,0-2.952,1.676,2.419,2.419,0,0,0,1.676,2.952c4.256.68,8.424,1.764,12.606,2.789a17.747,17.747,0,0,0,6.027.9,7.824,7.824,0,0,0,5.336-2.63c2.558-3.179,1.257-8.051-1.755-10.436a27.243,27.243,0,0,0-9.619-4.353,120.166,120.166,0,0,0-12.889-2.811,2.475,2.475,0,0,0-2.953,1.677,2.42,2.42,0,0,0,1.677,2.952Z"/>
<path class="c" d="M94.209,258.3a4.391,4.391,0,0,1,.478.436c.281.285.056-.006.271.325a5.267,5.267,0,0,1,.287.52c.109.22-.065-.208.071.187.157.458.321.923.434,1.394-.085-.351,0,.034,0,.206a4.689,4.689,0,0,1-.026.66c.049-.345-.114.372-.113.367q.139-.278.024-.07c-.077.136-.067.116.031-.058a5.91,5.91,0,0,1-.894.619,3.513,3.513,0,0,1-2.527.027,123.972,123.972,0,0,0-14.167-2.607,2.411,2.411,0,0,0-2.4,2.4,2.461,2.461,0,0,0,2.4,2.4c2.82.368,5.63.82,8.414,1.4,2.845.593,5.94,1.91,8.853,1.232a7.727,7.727,0,0,0,3.9-2.272,5.992,5.992,0,0,0,1.307-4.1,9.273,9.273,0,0,0-3.92-7.213,2.418,2.418,0,0,0-3.284.861,2.458,2.458,0,0,0,.861,3.284Z"/>
<path class="c" d="M88.49,267.648c-.546-.406.008.03.114.139q.108.111.207.228-.323-.432-.1-.123c.09.149.178.3.27.449.308.5-.105-.395.027.037.058.188.123.372.168.565.023.1.043.191.06.287.041.26.033.192-.027-.2a4.372,4.372,0,0,0,.005,1.009c-.018.432.125-.6-.02.061-.029.135-.064.269-.1.4-.027.087-.056.173-.087.259q-.137.354.088-.2a3.291,3.291,0,0,0-.248.458c-.291.491.061-.1.079-.077s-.345.344-.341.349c.333-.245.4-.3.2-.156-.066.044-.133.085-.2.123-.294.241.579-.146.071-.034-.167.037-.33.091-.5.125-.679.138.307,0-.146.027-.41.024-.815.051-1.226.05-1.014,0-2.026-.088-3.035-.181a67.9,67.9,0,0,0-6.966-.456,2.4,2.4,0,1,0,0,4.8,59.4,59.4,0,0,1,6.308.393,24.012,24.012,0,0,0,5.242.158,5.941,5.941,0,0,0,4.587-2.591,7.261,7.261,0,0,0,1.091-4.515,7.451,7.451,0,0,0-3.1-5.523,2.407,2.407,0,0,0-3.283.861,2.47,2.47,0,0,0,.861,3.284Z"/>
</g>
</svg>